<svg width="40" height="40" viewBox="0 0 40 40" fill="none" xmlns="http://www.w3.org/2000/svg">
<circle cx="20" cy="20" r="20" fill="#F0D800"/>
<path d="M9.50002 23.0001C9.22402 23.0001 9 22.776 9 22.5V17.5C9 17.224 9.22402 17 9.50002 17C9.77602 17 10 17.224 10 17.5V22.5C9.99998 22.776 9.77602 23.0001 9.50002 23.0001Z" fill="#F44336"/>
<path d="M12.5003 27C12.2243 27 12.0002 26.776 12.0002 26.5V13.5C12.0002 13.224 12.2243 13 12.5003 13C12.7763 13 13.0002 13.224 13.0002 13.5V26.5C13.0002 26.776 12.7763 27 12.5003 27Z" fill="#F44336"/>
<path d="M15.5 31C15.224 31 15 30.776 15 30.5V9.49997C15 9.22402 15.224 9 15.5 9C15.776 9 16 9.22402 16 9.50002V30.5C16 30.776 15.776 31 15.5 31Z" fill="#F44336"/>
<path d="M18.5003 30C18.2243 30 18.0002 29.776 18.0002 29.5V10.5C18.0002 10.224 18.2243 10 18.5003 10C18.7763 10 19.0002 10.224 19.0002 10.5V29.5C19.0002 29.776 18.7763 30 18.5003 30Z" fill="#F44336"/>
<path d="M21.5 26C21.224 26 21 25.776 21 25.5V14.5C21 14.224 21.224 13.9999 21.5 13.9999C21.776 13.9999 22 14.224 22 14.5V25.5C22 25.776 21.776 26 21.5 26Z" fill="#F44336"/>
<path d="M24.5 30C24.224 30 24 29.776 24 29.5V10.5C24 10.224 24.224 10 24.5 10C24.776 10 25 10.224 25 10.5V29.5C25 29.776 24.776 30 24.5 30Z" fill="#F44336"/>
<path d="M27.5003 26C27.2243 26 27.0002 25.776 27.0002 25.5V14.5C27.0002 14.224 27.2243 13.9999 27.5003 13.9999C27.7763 13.9999 28.0003 14.224 28.0003 14.5V25.5C28.0002 25.776 27.7763 26 27.5003 26Z" fill="#F44336"/>
<path d="M30.5 23.0001C30.224 23.0001 30 22.776 30 22.5V17.5C30 17.224 30.224 17 30.5 17C30.776 17 31 17.224 31 17.5V22.5C31 22.776 30.776 23.0001 30.5 23.0001Z" fill="#F44336"/>
<path d="M9.50002 23.0001C9.22402 23.0001 9 22.776 9 22.5V17.5C9 17.224 9.22402 17 9.50002 17C9.77602 17 10 17.224 10 17.5V22.5C9.99998 22.776 9.77602 23.0001 9.50002 23.0001Z" fill="black"/>
<path d="M12.5003 27C12.2243 27 12.0002 26.776 12.0002 26.5V13.5C12.0002 13.224 12.2243 13 12.5003 13C12.7763 13 13.0002 13.224 13.0002 13.5V26.5C13.0002 26.776 12.7763 27 12.5003 27Z" fill="black"/>
<path d="M15.5 31C15.224 31 15 30.776 15 30.5V9.49997C15 9.22402 15.224 9 15.5 9C15.776 9 16 9.22402 16 9.50002V30.5C16 30.776 15.776 31 15.5 31Z" fill="black"/>
<path d="M18.5003 30C18.2243 30 18.0002 29.776 18.0002 29.5V10.5C18.0002 10.224 18.2243 10 18.5003 10C18.7763 10 19.0002 10.224 19.0002 10.5V29.5C19.0002 29.776 18.7763 30 18.5003 30Z" fill="black"/>
<path d="M21.5 26C21.224 26 21 25.776 21 25.5V14.5C21 14.224 21.224 13.9999 21.5 13.9999C21.776 13.9999 22 14.224 22 14.5V25.5C22 25.776 21.776 26 21.5 26Z" fill="black"/>
<path d="M24.5 30C24.224 30 24 29.776 24 29.5V10.5C24 10.224 24.224 10 24.5 10C24.776 10 25 10.224 25 10.5V29.5C25 29.776 24.776 30 24.5 30Z" fill="black"/>
<path d="M27.5003 26C27.2243 26 27.0002 25.776 27.0002 25.5V14.5C27.0002 14.224 27.2243 13.9999 27.5003 13.9999C27.7763 13.9999 28.0003 14.224 28.0003 14.5V25.5C28.0002 25.776 27.7763 26 27.5003 26Z" fill="black"/>
<path d="M30.5 23.0001C30.224 23.0001 30 22.776 30 22.5V17.5C30 17.224 30.224 17 30.5 17C30.776 17 31 17.224 31 17.5V22.5C31 22.776 30.776 23.0001 30.5 23.0001Z" fill="black"/>
</svg>
