<svg width="40" height="40" viewBox="0 0 60 60" fill="none" xmlns="http://www.w3.org/2000/svg">
<circle cx="30" cy="30" r="30" fill="white"/>
<path d="M14.25 34.5001C13.836 34.5001 13.5 34.1641 13.5 33.7501V26.25C13.5 25.836 13.836 25.5 14.25 25.5C14.664 25.5 15 25.836 15 26.25V33.7501C15 34.1641 14.664 34.5001 14.25 34.5001Z" fill="#F44336"/>
<path d="M18.7505 40.5C18.3365 40.5 18.0005 40.164 18.0005 39.75V20.25C18.0005 19.836 18.3365 19.5 18.7505 19.5C19.1645 19.5 19.5005 19.836 19.5005 20.25V39.75C19.5005 40.164 19.1645 40.5 18.7505 40.5Z" fill="#F44336"/>
<path d="M23.25 46.5C22.836 46.5 22.5 46.164 22.5 45.75V14.25C22.5 13.836 22.836 13.5 23.25 13.5C23.664 13.5 24 13.836 24 14.25V45.75C24 46.164 23.664 46.5 23.25 46.5Z" fill="#F44336"/>
<path d="M27.7505 45C27.3365 45 27.0005 44.664 27.0005 44.25V15.75C27.0005 15.336 27.3365 15 27.7505 15C28.1645 15 28.5005 15.336 28.5005 15.75V44.25C28.5005 44.664 28.1645 45 27.7505 45Z" fill="#F44336"/>
<path d="M32.25 39.0001C31.836 39.0001 31.5 38.6641 31.5 38.2501V21.75C31.5 21.336 31.836 21 32.25 21C32.664 21 33 21.336 33 21.75V38.2501C33 38.6641 32.664 39.0001 32.25 39.0001Z" fill="#F44336"/>
<path d="M36.75 45C36.336 45 36 44.664 36 44.25V15.75C36 15.336 36.336 15 36.75 15C37.164 15 37.5 15.336 37.5 15.75V44.25C37.5 44.664 37.164 45 36.75 45Z" fill="#F44336"/>
<path d="M41.2505 39.0001C40.8365 39.0001 40.5005 38.6641 40.5005 38.2501V21.75C40.5005 21.336 40.8365 21 41.2505 21C41.6645 21 42.0005 21.336 42.0005 21.75V38.2501C42.0005 38.6641 41.6645 39.0001 41.2505 39.0001Z" fill="#F44336"/>
<path d="M45.75 34.5001C45.336 34.5001 45 34.1641 45 33.7501V26.25C45 25.836 45.336 25.5 45.75 25.5C46.164 25.5 46.5 25.836 46.5 26.25V33.7501C46.5 34.1641 46.164 34.5001 45.75 34.5001Z" fill="#F44336"/>
<path d="M14.25 34.5001C13.836 34.5001 13.5 34.1641 13.5 33.7501V26.25C13.5 25.836 13.836 25.5 14.25 25.5C14.664 25.5 15 25.836 15 26.25V33.7501C15 34.1641 14.664 34.5001 14.25 34.5001Z" fill="black"/>
<path d="M18.7505 40.5C18.3365 40.5 18.0005 40.164 18.0005 39.75V20.25C18.0005 19.836 18.3365 19.5 18.7505 19.5C19.1645 19.5 19.5005 19.836 19.5005 20.25V39.75C19.5005 40.164 19.1645 40.5 18.7505 40.5Z" fill="black"/>
<path d="M23.25 46.5C22.836 46.5 22.5 46.164 22.5 45.75V14.25C22.5 13.836 22.836 13.5 23.25 13.5C23.664 13.5 24 13.836 24 14.25V45.75C24 46.164 23.664 46.5 23.25 46.5Z" fill="black"/>
<path d="M27.7505 45C27.3365 45 27.0005 44.664 27.0005 44.25V15.75C27.0005 15.336 27.3365 15 27.7505 15C28.1645 15 28.5005 15.336 28.5005 15.75V44.25C28.5005 44.664 28.1645 45 27.7505 45Z" fill="black"/>
<path d="M32.25 39.0001C31.836 39.0001 31.5 38.6641 31.5 38.2501V21.75C31.5 21.336 31.836 21 32.25 21C32.664 21 33 21.336 33 21.75V38.2501C33 38.6641 32.664 39.0001 32.25 39.0001Z" fill="black"/>
<path d="M36.75 45C36.336 45 36 44.664 36 44.25V15.75C36 15.336 36.336 15 36.75 15C37.164 15 37.5 15.336 37.5 15.75V44.25C37.5 44.664 37.164 45 36.75 45Z" fill="black"/>
<path d="M41.2505 39.0001C40.8365 39.0001 40.5005 38.6641 40.5005 38.2501V21.75C40.5005 21.336 40.8365 21 41.2505 21C41.6645 21 42.0005 21.336 42.0005 21.75V38.2501C42.0005 38.6641 41.6645 39.0001 41.2505 39.0001Z" fill="black"/>
<path d="M45.75 34.5001C45.336 34.5001 45 34.1641 45 33.7501V26.25C45 25.836 45.336 25.5 45.75 25.5C46.164 25.5 46.5 25.836 46.5 26.25V33.7501C46.5 34.1641 46.164 34.5001 45.75 34.5001Z" fill="black"/>
</svg>
