<svg width="172" height="116" viewBox="0 0 172 116" fill="none" xmlns="http://www.w3.org/2000/svg">
<path d="M-77.7666 55.6118H-22.4412C-19.1313 28.3514 -17.7692 0 3.30115 0C15.5154 0 20.0175 10.3541 22.575 19.3748C25.4028 29.3488 26.8348 42.5895 28.1519 55.6118H61.8471C62.5895 48.2702 63.3753 40.7871 64.413 33.9824C64.6115 32.6802 66.6562 31.7144 68.9908 31.8256C71.3202 31.9366 73.048 33.0822 72.8495 34.3844C71.834 41.0424 71.0583 48.3894 70.3275 55.6118H103.954C102.483 43.4458 101.03 28.0284 97.6267 17.7201C93.7574 5.99838 88.6944 4.73292 86.6973 4.73292C84.9971 4.73292 79.1291 6.05843 75.0006 23.1159C74.6873 24.4109 72.5569 25.3176 70.2381 25.1436C67.9214 24.9682 66.2974 23.7764 66.6106 22.4814C69.3015 11.3643 73.792 0 86.6973 0C98.9676 0 103.563 9.62291 105.953 16.861C109.413 27.3427 110.773 41.8813 112.44 55.6118H167.767C170.105 55.6118 172 56.6714 172 57.9783C172 59.2851 170.105 60.3447 167.767 60.3447H113.037C114.11 68.501 115.417 76.3195 117.467 82.527C121.337 94.2484 126.399 95.5139 128.396 95.5139C132.297 95.5139 135.154 91.4968 136.51 89.1022C138.949 84.7941 140.805 78.6478 142.349 69.7597C142.575 68.4593 144.639 67.5074 146.972 67.6331C149.299 67.7597 151.002 68.9166 150.776 70.2173C149.173 79.4435 147.205 85.8983 144.582 90.5307C143.221 92.9338 139.08 100.247 128.397 100.247C116.127 100.247 111.531 90.6242 109.141 83.3858C106.992 76.8742 105.647 68.7625 104.549 60.3444H69.8513C66.7069 91.437 63.8373 115.956 45.0011 115.956C32.7868 115.956 28.2847 105.602 25.7272 96.5814C19.7905 75.6406 20.0614 40.7439 14.2141 20.1152C10.166 5.8422 4.83838 4.73292 3.30115 4.73292C1.3046 4.73292 -3.75847 5.99838 -7.62773 17.7198C-11.0319 28.0298 -12.4416 43.0935 -13.955 55.6118H-0.661789C1.67607 55.6118 3.57155 56.6714 3.57155 57.9783C3.57155 59.2851 1.67607 60.3447 -0.661789 60.3447H-14.5477C-15.6462 68.7625 -16.9908 76.8742 -19.1408 83.3861C-21.5305 90.6242 -26.1258 100.247 -38.3961 100.247C-49.6854 100.247 -54.1828 92.2987 -56.5841 86.3199C-59.4458 79.1936 -61.0238 69.7319 -62.2451 60.3447H-77.7666C-80.1045 60.3447 -82 59.2851 -82 57.9783C-82 56.6714 -80.1045 55.6118 -77.7666 55.6118ZM44.9995 111.224C46.5362 111.224 51.8644 110.114 55.9109 95.841C58.6552 86.1619 60.0723 73.1629 61.3698 60.3447H28.6292C29.9267 73.1629 31.3443 86.1616 34.0881 95.841C38.1346 110.114 43.4628 111.224 44.9995 111.224ZM-48.3222 85.2831C-42.5019 99.7765 -32.8653 98.8796 -27.4667 82.5273C-25.4173 76.3201 -24.1097 68.5013 -23.0376 60.345H-53.7552C-52.5646 69.4328 -51.0337 78.5333 -48.3222 85.2831Z" fill="#F0D800"/>
</svg>
