<svg width="16" height="11" viewBox="0 0 16 11" fill="none" xmlns="http://www.w3.org/2000/svg">
<path d="M15.9023 5.09767L10.9023 0.0976641C10.7721 -0.0325547 10.5612 -0.0325547 10.431 0.0976641C10.3008 0.227883 10.3008 0.43882 10.431 0.569008L14.862 5.00001H0.333344C0.149094 5.00001 0 5.1491 0 5.33335C0 5.5176 0.149094 5.6667 0.333344 5.6667H14.862L10.431 10.0977C10.3008 10.2279 10.3008 10.4388 10.431 10.569C10.4961 10.6341 10.5814 10.6667 10.6667 10.6667C10.752 10.6667 10.8373 10.6341 10.9024 10.569L15.9024 5.56901C16.0326 5.43882 16.0326 5.22788 15.9023 5.09767Z" fill="#F0D800"/>
</svg>
