<svg width="24" height="14" viewBox="0 0 24 14" fill="none" xmlns="http://www.w3.org/2000/svg">
<path d="M23.12 4.9099L19.25 0.9999C19.157 0.906171 19.0464 0.831777 18.9246 0.781008C18.8027 0.73024 18.672 0.704102 18.54 0.704102C18.408 0.704102 18.2773 0.73024 18.1554 0.781008C18.0336 0.831777 17.923 0.906171 17.83 0.9999C17.6437 1.18726 17.5392 1.44071 17.5392 1.7049C17.5392 1.96909 17.6437 2.22254 17.83 2.4099L21.39 5.9999H1C0.734784 5.9999 0.48043 6.10526 0.292893 6.29279C0.105357 6.48033 0 6.73468 0 6.9999H0C0 7.26512 0.105357 7.51947 0.292893 7.70701C0.48043 7.89454 0.734784 7.9999 1 7.9999H21.45L17.83 11.6099C17.7363 11.7029 17.6619 11.8135 17.6111 11.9353C17.5603 12.0572 17.5342 12.1879 17.5342 12.3199C17.5342 12.4519 17.5603 12.5826 17.6111 12.7045C17.6619 12.8263 17.7363 12.9369 17.83 13.0299C17.923 13.1236 18.0336 13.198 18.1554 13.2488C18.2773 13.2996 18.408 13.3257 18.54 13.3257C18.672 13.3257 18.8027 13.2996 18.9246 13.2488C19.0464 13.198 19.157 13.1236 19.25 13.0299L23.12 9.1499C23.6818 8.5874 23.9974 7.8249 23.9974 7.0299C23.9974 6.2349 23.6818 5.4724 23.12 4.9099Z" fill="black"/>
</svg>
