<svg width="34" height="23" viewBox="0 0 34 23" fill="none" xmlns="http://www.w3.org/2000/svg">
<path d="M0.207507 12.1675L10.8325 22.7925C11.1092 23.0692 11.5575 23.0692 11.8341 22.7925C12.1108 22.5158 12.1108 22.0675 11.8341 21.7909L2.41824 12.375L33.2916 12.375C33.6832 12.375 34 12.0582 34 11.6666C34 11.2751 33.6832 10.9583 33.2916 10.9583L2.41824 10.9583L11.8341 1.54246C12.1108 1.26574 12.1108 0.817503 11.8341 0.540855C11.6958 0.402531 11.5145 0.333336 11.3333 0.333336C11.1521 0.333336 10.9708 0.402531 10.8324 0.540856L0.207438 11.1659C-0.0692072 11.4425 -0.0692072 11.8907 0.207507 12.1675Z" fill="white" fill-opacity="0.36"/>
</svg>
